<?xml version="1.0" encoding="utf-8"?>
<!-- Generator: Adobe Illustrator 16.0.0, SVG Export Plug-In . SVG Version: 6.00 Build 0)  -->
<!DOCTYPE svg PUBLIC "-//W3C//DTD SVG 1.1//EN" "http://www.w3.org/Graphics/SVG/1.1/DTD/svg11.dtd">
<svg version="1.1" id="Layer_1" xmlns="http://www.w3.org/2000/svg" xmlns:xlink="http://www.w3.org/1999/xlink" x="0px" y="0px"
	 width="190.75px" height="37.917px" viewBox="0 0 190.75 37.917" enable-background="new 0 0 190.75 37.917" xml:space="preserve">
<g>
	<defs>
		<rect id="SVGID_1_" x="-11.073" y="-16.25" width="213.901" height="69.973"/>
	</defs>
	<clipPath id="SVGID_2_">
		<use xlink:href="#SVGID_1_"  overflow="visible"/>
	</clipPath>
	<path clip-path="url(#SVGID_2_)" fill="#F37021" d="M12.072,25.221c0.431,2.017-0.871,4.02-2.892,4.448l-1.167,0.245
		c-2.018,0.431-4.019-0.872-4.449-2.888L1.171,15.761c-0.428-2.015,0.87-4.017,2.889-4.447l1.17-0.248
		c2.018-0.429,4.019,0.87,4.449,2.887L12.072,25.221z"/>
	<path clip-path="url(#SVGID_2_)" fill="#F37021" d="M22.399,25.006c0.425,2.018-0.873,4.02-2.89,4.447l-1.169,0.246
		c-2.019,0.429-4.017-0.87-4.446-2.887l-3.422-16.095c-0.428-2.021,0.871-4.022,2.887-4.45L14.53,6.02
		c2.016-0.429,4.019,0.87,4.447,2.89L22.399,25.006z"/>
	<path clip-path="url(#SVGID_2_)" fill="#F37021" d="M32.517,23.796c0.426,2.019-0.872,4.019-2.89,4.447l-1.171,0.251
		c-2.015,0.429-4.019-0.872-4.446-2.891L19.792,5.761c-0.427-2.018,0.869-4.02,2.887-4.447l1.171-0.251
		c2.018-0.43,4.018,0.872,4.448,2.891L32.517,23.796z"/>
	<path clip-path="url(#SVGID_2_)" fill="#F37021" d="M42.273,20.91c0.429,2.017-0.871,4.019-2.89,4.447l-1.169,0.248
		c-2.017,0.43-4.016-0.872-4.447-2.888L30.416,6.931c-0.433-2.017,0.867-4.02,2.886-4.447l1.168-0.25
		c2.017-0.429,4.018,0.872,4.448,2.887L42.273,20.91z"/>
	<path clip-path="url(#SVGID_2_)" fill="#F37021" d="M37.49,36.132c-2.019,0.43-4.021-0.873-4.446-2.889l-0.253-1.169
		c-0.426-2.019,0.875-4.021,2.893-4.447l6.129-1.305c2.015-0.429,4.02,0.87,4.448,2.888l0.25,1.171
		c0.428,2.019-0.871,4.02-2.893,4.447L37.49,36.132z"/>
	<path clip-path="url(#SVGID_2_)" fill="#F37021" d="M51.068,6.114c1.642-1.166,4.125-1.969,6.42-2.006
		c2.262,0,4.377,0.621,5.509,2.514c1.095-1.64,3.103-2.477,5.18-2.514c3.427-0.039,7.004,2.042,7.004,6.237v13.022h-3.978V10.491
		c0-1.714-1.459-2.481-3.027-2.481c-1.569,0-3.174,0.874-3.174,2.335v13.022h-3.939V10.419c0-1.717-1.604-2.409-3.32-2.409
		c-0.949,0-1.935,0.255-2.736,0.767v14.59h-3.94V6.114z"/>
	<rect x="78.465" y="4.472" clip-path="url(#SVGID_2_)" fill="#F37021" width="4.013" height="18.895"/>
	<path clip-path="url(#SVGID_2_)" fill="#F37021" d="M85.545,10.601c0-4.378,3.757-6.493,7.441-6.493
		c2.953,0,6.313,1.349,7.332,4.961l-3.648,1.386c-0.47-1.678-1.97-2.445-3.5-2.445c-1.717,0-3.612,0.912-3.612,2.556v6.712
		c0,1.639,1.677,2.552,3.429,2.552c1.566,0,3.213-0.765,3.683-2.441l3.722,1.384c-1.021,3.612-4.452,4.962-7.405,4.962
		c-3.684,0-7.441-2.115-7.441-6.495V10.601z"/>
	<path clip-path="url(#SVGID_2_)" fill="#F37021" d="M111.882,4.327v3.538c-2.079-0.622-5.398,0.254-5.398,2.806v12.696h-4.013
		V10.601c0-2.699,1.496-4.633,3.502-5.691c1.167-0.622,3.212-0.802,3.757-0.802C110.35,4.108,111.045,4.145,111.882,4.327"/>
	<path clip-path="url(#SVGID_2_)" fill="#F37021" d="M112.976,10.639c0-4.341,3.76-6.494,7.48-6.531
		c3.646,0.037,7.404,2.19,7.404,6.531v6.563c0,4.416-3.758,6.495-7.404,6.531c-3.721-0.036-7.48-2.115-7.48-6.531V10.639z
		 M116.995,10.639v6.383c0,1.785,1.785,2.807,3.462,2.807c1.569,0,3.395-1.021,3.395-2.807v-6.383c0-1.789-1.825-2.629-3.395-2.629
		C118.78,8.01,116.995,8.85,116.995,10.639"/>
	<path clip-path="url(#SVGID_2_)" fill="#F37021" d="M130.198,6.114c1.642-1.166,4.125-1.969,6.42-2.006
		c2.261,0,4.378,0.621,5.508,2.514c1.098-1.64,3.104-2.477,5.182-2.514c3.428-0.039,7.005,2.042,7.005,6.237v13.022h-3.979V10.491
		c0-1.714-1.457-2.481-3.026-2.481c-1.567,0-3.174,0.874-3.174,2.335v13.022h-3.942V10.419c0-1.717-1.604-2.409-3.319-2.409
		c-0.949,0-1.933,0.255-2.734,0.767v14.59h-3.939V6.114z"/>
	<path clip-path="url(#SVGID_2_)" fill="#F37021" d="M167.337,10.455c0-1.86-1.895-2.808-3.943-2.771
		c-1.492,0-3.025,0.511-3.974,1.567l-2.264-2.334c2.047-2.263,4.344-2.809,6.751-2.809c3.681,0,7.439,1.969,7.439,6.237v12.109
		c-1.747,0.655-4.378,1.279-7.146,1.279c-3.94,0-7.702-1.279-7.702-5.763c0-4.163,3.505-6.057,7.008-6.057
		c1.35,0,2.736,0.256,3.83,0.73V10.455z M167.337,15.782c-0.803-0.366-2.045-0.657-3.249-0.657c-2.333,0-3.649,1.167-3.649,2.807
		c0,1.79,1.68,2.446,3.507,2.446c1.31,0,2.514-0.181,3.392-0.401V15.782z"/>
	<polygon clip-path="url(#SVGID_2_)" fill="#F37021" points="189.48,23.367 184.849,23.367 182.878,20.268 180.873,16.656 
		178.79,20.304 176.823,23.367 172.154,23.367 178.574,13.92 172.154,4.472 176.823,4.472 178.644,7.316 180.873,11.222 
		183.094,7.281 184.849,4.472 189.445,4.472 183.277,13.92 	"/>
	<path clip-path="url(#SVGID_2_)" d="M78.46,31.686c0.594-0.207,1.234-0.387,1.819-0.387c0.882,0.018,1.756,0.495,1.756,1.531v3.224
		h-0.711v-3.251c0-0.567-0.541-0.838-1.045-0.838c-0.415,0-0.838,0.108-1.099,0.207v3.882h-0.72V31.686z"/>
	<path clip-path="url(#SVGID_2_)" d="M84.801,32.856c0-1.035,0.909-1.549,1.81-1.558c0.892,0.009,1.792,0.522,1.792,1.558v1.729
		c0,1.045-0.9,1.549-1.792,1.558c-0.901-0.009-1.81-0.513-1.81-1.558V32.856z M85.521,32.839v1.756c0,0.586,0.567,0.864,1.09,0.864
		c0.504,0,1.072-0.278,1.072-0.864v-1.756c0-0.586-0.567-0.855-1.072-0.855C86.089,31.983,85.521,32.253,85.521,32.839"/>
	<path clip-path="url(#SVGID_2_)" d="M93.087,36.126c-0.099,0.009-0.189,0.018-0.279,0.018c-0.946,0-1.63-0.576-1.63-1.53v-4.404
		h0.711v1.18h0.955v0.666h-0.955v2.559c0,0.531,0.45,1.035,1.198,0.892V36.126z"/>
	<path clip-path="url(#SVGID_2_)" d="M96.293,31.568c0.378-0.188,0.783-0.27,1.144-0.27c0.9-0.019,1.721,0.468,1.721,1.549v3.206
		h-0.712v-3.215c0-0.604-0.54-0.865-1.071-0.874c-0.37,0-0.667,0.055-1.081,0.234v3.854h-0.721v-6.286h0.721V31.568z"/>
	<path clip-path="url(#SVGID_2_)" d="M102.417,29.587c0.288,0,0.505,0.217,0.505,0.505c0,0.279-0.217,0.504-0.505,0.504
		c-0.279,0-0.505-0.225-0.505-0.504C101.913,29.804,102.138,29.587,102.417,29.587 M102.796,36.054h-0.721v-4.665h0.721V36.054z"/>
	<path clip-path="url(#SVGID_2_)" d="M105.732,31.686c0.595-0.207,1.234-0.387,1.819-0.387c0.882,0.018,1.756,0.495,1.756,1.531
		v3.224h-0.711v-3.251c0-0.567-0.541-0.838-1.045-0.838c-0.414,0-0.838,0.108-1.1,0.207v3.882h-0.72V31.686z"/>
	<path clip-path="url(#SVGID_2_)" d="M112.685,36.666c0.198,0.252,0.729,0.46,1.135,0.46c0.559,0,1.117-0.172,1.117-0.838V35.9
		c-0.343,0.181-0.703,0.243-1.063,0.243c-0.9,0.01-1.792-0.54-1.792-1.549V32.83c0-1.019,0.873-1.531,1.756-1.531
		c0.622,0,1.1,0.081,1.811,0.369v4.62c0,1.045-0.883,1.504-1.766,1.504c-0.603,0-1.225-0.234-1.639-0.685L112.685,36.666z
		 M114.937,32.146c-0.37-0.145-0.686-0.189-1.1-0.189c-0.522,0-1.044,0.333-1.035,0.892v1.783c0,0.54,0.478,0.874,1.054,0.874
		c0.405,0,0.721-0.063,1.081-0.198V32.146z"/>
	<path clip-path="url(#SVGID_2_)" d="M123.826,36.144c-1.018,0-1.585-0.567-1.585-1.521v-4.863h0.721v4.863
		c0,0.514,0.271,0.847,0.864,0.847V36.144z"/>
	<path clip-path="url(#SVGID_2_)" d="M126.6,29.587c0.288,0,0.504,0.217,0.504,0.505c0,0.279-0.216,0.504-0.504,0.504
		c-0.279,0-0.505-0.225-0.505-0.504C126.095,29.804,126.321,29.587,126.6,29.587 M126.978,36.054h-0.72v-4.665h0.72V36.054z"/>
	<polygon clip-path="url(#SVGID_2_)" points="132.814,31.389 133.751,31.389 131.643,33.514 133.706,36.054 132.796,36.054 
		131.139,34.027 130.653,34.514 130.653,36.054 129.932,36.054 129.932,29.768 130.653,29.768 130.653,33.55 	"/>
	<path clip-path="url(#SVGID_2_)" d="M136.525,34.649c0,0.567,0.531,0.828,1.081,0.828c0.423,0,0.873-0.198,1.063-0.631l0.63,0.271
		c-0.324,0.685-1.018,1.026-1.692,1.026c-0.901,0-1.811-0.513-1.811-1.549v-1.747c0-1.045,0.909-1.549,1.811-1.549
		c0.882,0,1.783,0.504,1.783,1.549v1.234h-2.864V34.649z M138.705,32.812c0-0.55-0.567-0.855-1.099-0.855
		c-0.604,0-1.09,0.306-1.081,0.874v0.648h2.18V32.812z"/>
	<path clip-path="url(#SVGID_2_)" d="M148.422,32.803c0-0.541-0.54-0.838-1.099-0.838c-0.414,0-0.874,0.162-1.152,0.505
		l-0.451-0.441c0.433-0.478,1.072-0.729,1.657-0.729c0.892,0,1.766,0.495,1.766,1.504v3.026c-0.648,0.225-1.306,0.324-1.928,0.314
		c-0.937-0.009-1.666-0.459-1.666-1.459c0.009-1.026,0.838-1.485,1.757-1.485c0.404,0,0.774,0.081,1.116,0.225V32.803z
		 M148.422,33.946c-0.288-0.099-0.666-0.18-1.045-0.18c-0.585,0-1.107,0.252-1.116,0.918c0,0.595,0.423,0.838,0.973,0.847
		c0.396,0.009,0.801-0.009,1.188-0.09V33.946z"/>
	<path clip-path="url(#SVGID_2_)" d="M152.007,31.686c0.594-0.207,1.233-0.387,1.819-0.387c0.882,0.018,1.756,0.495,1.756,1.531
		v3.224h-0.712v-3.251c0-0.567-0.54-0.838-1.044-0.838c-0.415,0-0.838,0.108-1.1,0.207v3.882h-0.72V31.686z"/>
	<path clip-path="url(#SVGID_2_)" d="M159.131,36.621c0.252,0.307,0.72,0.469,1.144,0.469c0.576,0,1.152-0.226,1.152-0.874v-0.359
		c-0.314,0.216-0.738,0.278-1.116,0.288c-0.928,0.009-1.847-0.568-1.847-1.604v-3.152h0.739v3.17c0,0.567,0.549,0.883,1.09,0.892
		c0.369,0,0.765-0.081,1.134-0.225v-3.837h0.721v4.827c0,1.081-0.892,1.576-1.819,1.576c-0.612,0-1.27-0.252-1.692-0.721
		L159.131,36.621z"/>
	<path clip-path="url(#SVGID_2_)" d="M166.976,36.126c-0.1,0.009-0.189,0.018-0.279,0.018c-0.946,0-1.631-0.576-1.631-1.53v-4.404
		h0.712v1.18h0.954v0.666h-0.954v2.559c0,0.531,0.45,1.035,1.198,0.892V36.126z"/>
	<path clip-path="url(#SVGID_2_)" d="M170.182,31.568c0.378-0.188,0.783-0.27,1.144-0.27c0.9-0.019,1.721,0.468,1.721,1.549v3.206
		h-0.713v-3.215c0-0.604-0.539-0.865-1.07-0.874c-0.37,0-0.667,0.055-1.081,0.234v3.854h-0.721v-6.286h0.721V31.568z"/>
	<path clip-path="url(#SVGID_2_)" d="M176.306,29.587c0.288,0,0.505,0.217,0.505,0.505c0,0.279-0.217,0.504-0.505,0.504
		c-0.279,0-0.504-0.225-0.504-0.504C175.802,29.804,176.027,29.587,176.306,29.587 M176.685,36.054h-0.721v-4.665h0.721V36.054z"/>
	<path clip-path="url(#SVGID_2_)" d="M179.621,31.686c0.595-0.207,1.234-0.387,1.819-0.387c0.883,0.018,1.756,0.495,1.756,1.531
		v3.224h-0.711v-3.251c0-0.567-0.541-0.838-1.045-0.838c-0.414,0-0.838,0.108-1.099,0.207v3.882h-0.721V31.686z"/>
	<path clip-path="url(#SVGID_2_)" d="M186.574,36.666c0.198,0.252,0.729,0.46,1.135,0.46c0.559,0,1.116-0.172,1.116-0.838V35.9
		c-0.342,0.181-0.702,0.243-1.063,0.243c-0.9,0.01-1.792-0.54-1.792-1.549V32.83c0-1.019,0.873-1.531,1.756-1.531
		c0.622,0,1.099,0.081,1.811,0.369v4.62c0,1.045-0.883,1.504-1.765,1.504c-0.604,0-1.226-0.234-1.64-0.685L186.574,36.666z
		 M188.825,32.146c-0.369-0.145-0.685-0.189-1.099-0.189c-0.522,0-1.045,0.333-1.035,0.892v1.783c0,0.54,0.478,0.874,1.054,0.874
		c0.405,0,0.72-0.063,1.08-0.198V32.146z"/>
</g>
</svg>
